<svg height="512pt" viewBox="0 -16 512 512" width="512pt" xmlns="http://www.w3.org/2000/svg"><path d="m90 315h-30c0-24.8125-20.1875-45-45-45h-15v-90h45c24.8125 0 45 20.1875 45 45h-30c0-8.277344-6.722656-15-15-15h-15v31.507812c34.1875 6.972657 60 37.265626 60 73.492188zm0 0" fill="#3e5959"/><path d="m452 315h-30c0-36.226562 25.8125-66.519531 60-73.492188v-31.507812h-15c-8.277344 0-15 6.722656-15 15h-30c0-24.8125 20.1875-45 45-45h45v90h-15c-24.8125 0-45 20.1875-45 45zm0 0" fill="#293939"/><path d="m452 105v300c0 5.097656-.601562 10.199219-1.5 15l-28.5 30h-307.097656l-53.402344-30c-.898438-4.800781-1.5-9.902344-1.5-15v-300zm0 0" fill="#537983"/><path d="m452 105v300c0 5.097656-.601562 10.199219-1.5 15l-28.5 30h-166v-345zm0 0" fill="#3e5959"/><path d="m359.5 68.398438-27 13.199218-25.800781-51.597656h-101.398438l-25.800781 51.597656-27-13.199218 34.199219-68.398438h138.601562zm0 0" fill="#537983"/><path d="m359.5 68.398438-27 13.199218-25.800781-51.597656h-50.699219v-30h69.300781zm0 0" fill="#3e5959"/><path d="m361 180h30v30h-30zm0 0" fill="#ff641a"/><path d="m437 60h-362c-24.902344 0-45 20.097656-45 45v15h452v-15c0-24.902344-20.097656-45-45-45zm0 0" fill="#e0f4ff"/><path d="m482 105v15h-226v-60h181c24.902344 0 45 20.097656 45 45zm0 0" fill="#bbdcff"/><path d="m450.5 420c-6.902344 34.199219-38.199219 60-74.5 60h-241c-36.300781 0-66.597656-25.800781-73.5-60zm0 0" fill="#3e5959"/><path d="m256 420h194.5c-6.902344 34.199219-38.199219 60-74.5 60h-120zm0 0" fill="#293939"/><path d="m256 180c-49.5 0-90 40.5-90 90s40.5 90 90 90 90-40.5 90-90-40.5-90-90-90zm0 0" fill="#e0f4ff"/><path d="m256 360v-180c49.5 0 90 40.5 90 90s-40.5 90-90 90zm0 0" fill="#bbdcff"/><path d="m316 255v30h-75v-75h30v45zm0 0" fill="#ff9100"/><path d="m271 255h45v30h-60v-75h15zm0 0" fill="#ff641a"/></svg>
